<?xml version="1.0" encoding="UTF-8"?>
<svg id="Layer_2" data-name="Layer 2" xmlns="http://www.w3.org/2000/svg" viewBox="0 0 94.69 106.48">
  <defs>
    <style>
      .cls-1 {
        fill: #ffffff;
      }
    </style>
  </defs>
  <g id="Layer_1-2" data-name="Layer 1">
    <g>
      <circle class="cls-1" cx="33.18" cy="27.8" r="6.62"/>
      <path class="cls-1" d="M66.69,15.92l-.1,44.49-23.64-25.16c-2.26,3.25-6.02,5.39-10.29,5.39-6.92,0-12.53-5.61-12.53-12.53s5.61-12.53,12.53-12.53c.05,0,.09,0,.14,0h0s12.39,0,12.39,0v12.39h0s0,.09,0,.14c0,1.69-.34,3.3-.95,4.77h14.94l-9.32-8.2,9.32-9.1h-14.05c2.05-1.59,3.37-4.07,3.37-6.87,0-4.81-3.9-8.7-8.71-8.7s-8.7,3.9-8.7,8.7c0,.22.02.44.03.66-1.06-.94-2.44-1.52-3.96-1.52-3.32,0-6.01,2.69-6.01,6.01,0,1.82.82,3.42,2.09,4.53C9.34,26.62,0,41.79,0,59.14c0,21.05,13.74,38.88,32.73,45.04-3.03-3.44-4.88-7.94-4.88-12.88,0-10.77,8.73-28.66,19.5-28.66s19.5,17.89,19.5,28.66c0,4.94-1.85,9.44-4.89,12.88,18.99-6.16,32.73-23.99,32.73-45.04,0-19.26-11.5-35.83-28-43.22Z"/>
      <circle class="cls-1" cx="33.18" cy="27.8" r="5.08"/>
      <path class="cls-1" d="M36.94,96.08c0-5.75,4.66-15.3,10.41-15.3s10.41,9.55,10.41,15.3-4.66,10.41-10.41,10.41-10.41-4.66-10.41-10.41Z"/>
    </g>
  </g>
</svg>
