<?xml version="1.0" encoding="UTF-8"?>
<svg id="Layer_2" data-name="Layer 2" xmlns="http://www.w3.org/2000/svg" viewBox="0 0 232.5 155.47">
  <defs>
    <style>
      .cls-1 {
        fill: #fff;
        stroke-width: 0px;
      }
    </style>
  </defs>
  <g id="Layer_1-2" data-name="Layer 1">
    <g>
      <g>
        <circle class="cls-1" cx="96.99" cy="27.8" r="6.62"/>
        <path class="cls-1" d="M130.5,15.92l-.1,44.49-23.64-25.16c-2.26,3.25-6.02,5.39-10.29,5.39-6.92,0-12.53-5.61-12.53-12.53s5.61-12.53,12.53-12.53c.05,0,.09,0,.14,0h0s12.39,0,12.39,0v12.39h0s0,.09,0,.14c0,1.69-.34,3.3-.95,4.77h14.94l-9.32-8.2,9.32-9.1h-14.05c2.05-1.59,3.37-4.07,3.37-6.87,0-4.81-3.9-8.7-8.71-8.7s-8.7,3.9-8.7,8.7c0,.22.02.44.03.66-1.06-.94-2.44-1.52-3.96-1.52-3.32,0-6.01,2.69-6.01,6.01,0,1.82.82,3.42,2.09,4.53-13.92,8.24-23.26,23.41-23.26,40.76,0,21.05,13.74,38.88,32.73,45.04-3.03-3.44-4.88-7.94-4.88-12.88,0-10.77,8.73-28.66,19.5-28.66s19.5,17.89,19.5,28.66c0,4.94-1.85,9.44-4.89,12.88,18.99-6.16,32.73-23.99,32.73-45.04,0-19.26-11.5-35.83-28-43.22Z"/>
        <circle class="cls-1" cx="96.99" cy="27.8" r="5.08"/>
        <path class="cls-1" d="M100.75,96.08c0-5.75,4.66-15.3,10.41-15.3s10.41,9.55,10.41,15.3-4.66,10.41-10.41,10.41-10.41-4.66-10.41-10.41Z"/>
      </g>
      <g>
        <path class="cls-1" d="M11.53,144.03l-3.16,3.37v7.47H0v-29.89h8.37v12.43l11.57-12.43h9.31l-12.21,13.24,12.85,16.65h-9.82l-8.54-10.85Z"/>
        <path class="cls-1" d="M36.31,153.46c-2.52-1.34-4.5-3.19-5.93-5.55-1.44-2.36-2.16-5.02-2.16-7.98s.72-5.62,2.16-7.98c1.44-2.36,3.42-4.21,5.93-5.55,2.52-1.34,5.36-2.01,8.52-2.01s6,.67,8.52,2.01c2.52,1.34,4.5,3.19,5.93,5.55,1.44,2.36,2.16,5.02,2.16,7.98s-.72,5.62-2.16,7.98c-1.44,2.36-3.42,4.21-5.93,5.55-2.52,1.34-5.36,2.01-8.52,2.01s-6-.67-8.52-2.01ZM48.93,147.4c1.22-.71,2.19-1.71,2.9-3.01.71-1.3,1.07-2.78,1.07-4.46s-.36-3.17-1.07-4.46c-.71-1.3-1.68-2.3-2.9-3.01-1.22-.71-2.59-1.07-4.1-1.07s-2.88.36-4.1,1.07c-1.22.71-2.19,1.71-2.9,3.01-.71,1.3-1.07,2.78-1.07,4.46s.36,3.17,1.07,4.46c.71,1.3,1.68,2.3,2.9,3.01,1.22.71,2.59,1.07,4.1,1.07s2.87-.36,4.1-1.07Z"/>
        <path class="cls-1" d="M76.69,144.03l-3.16,3.37v7.47h-8.37v-29.89h8.37v12.43l11.57-12.43h9.31l-12.21,13.24,12.85,16.65h-9.82l-8.54-10.85Z"/>
        <path class="cls-1" d="M118.79,149.06h-12.64l-2.35,5.81h-8.63l13.19-29.89h8.33l13.24,29.89h-8.8l-2.35-5.81ZM116.32,142.83l-3.84-9.56-3.84,9.56h7.69Z"/>
        <path class="cls-1" d="M158.75,154.87l-.09-15.84-7.69,12.9h-3.76l-7.64-12.47v15.41h-7.81v-29.89h6.96l10.5,17.25,10.25-17.25h6.96l.09,29.89h-7.77Z"/>
        <path class="cls-1" d="M191.99,149.06h-12.64l-2.35,5.81h-8.63l13.19-29.89h8.33l13.24,29.89h-8.8l-2.35-5.81ZM189.51,142.83l-3.84-9.56-3.84,9.56h7.69Z"/>
        <path class="cls-1" d="M218.02,146.93h-4.61v7.94h-8.45v-29.89h13.66c2.7,0,5.05.45,7.05,1.35,1.99.9,3.53,2.18,4.61,3.84,1.08,1.67,1.62,3.62,1.62,5.87s-.51,4.05-1.52,5.66c-1.01,1.61-2.46,2.87-4.33,3.78l6.45,9.39h-9.05l-5.42-7.94ZM222.04,132.8c-.88-.77-2.19-1.15-3.93-1.15h-4.7v8.75h4.7c1.74,0,3.05-.38,3.93-1.13.88-.75,1.32-1.83,1.32-3.22s-.44-2.48-1.32-3.25Z"/>
      </g>
    </g>
  </g>
</svg>